<mxfile host="app.diagrams.net" modified="2024-04-04T14:51:19.094Z" agent="Mozilla/5.0 (Windows NT 10.0; Win64; x64) AppleWebKit/537.36 (KHTML, like Gecko) Chrome/123.0.0.0 Safari/537.36" etag="ui1dZypohaR8835WLsDh" version="24.2.2" type="device">
  <diagram name="Сторінка-1" id="DX-T5V0f-UsxFtsbRzal">
    <mxGraphModel dx="1474" dy="1566" grid="1" gridSize="10" guides="1" tooltips="1" connect="1" arrows="1" fold="1" page="1" pageScale="1" pageWidth="850" pageHeight="1100" math="0" shadow="0">
      <root>
        <mxCell id="0" />
        <mxCell id="1" parent="0" />
        <mxCell id="_ELthS9zB8k-ZV5dLOc0-4" style="edgeStyle=orthogonalEdgeStyle;rounded=0;orthogonalLoop=1;jettySize=auto;html=1;entryX=0.5;entryY=0;entryDx=0;entryDy=0;" edge="1" parent="1" source="_ELthS9zB8k-ZV5dLOc0-1" target="_ELthS9zB8k-ZV5dLOc0-3">
          <mxGeometry relative="1" as="geometry" />
        </mxCell>
        <mxCell id="_ELthS9zB8k-ZV5dLOc0-1" value="&lt;font face=&quot;Times New Roman&quot; style=&quot;font-size: 36px;&quot;&gt;&lt;b&gt;Convert&lt;/b&gt;&lt;/font&gt;" style="rounded=0;whiteSpace=wrap;html=1;" vertex="1" parent="1">
          <mxGeometry x="1105" y="140" width="210" height="130" as="geometry" />
        </mxCell>
        <mxCell id="_ELthS9zB8k-ZV5dLOc0-6" style="edgeStyle=orthogonalEdgeStyle;rounded=0;orthogonalLoop=1;jettySize=auto;html=1;entryX=0.5;entryY=0;entryDx=0;entryDy=0;" edge="1" parent="1" source="_ELthS9zB8k-ZV5dLOc0-3" target="_ELthS9zB8k-ZV5dLOc0-5">
          <mxGeometry relative="1" as="geometry" />
        </mxCell>
        <mxCell id="_ELthS9zB8k-ZV5dLOc0-3" value="&lt;font style=&quot;font-size: 14px;&quot; face=&quot;Times New Roman&quot;&gt;Метод конвертації(тип та вид вхідних одиниць)&lt;/font&gt;" style="ellipse;whiteSpace=wrap;html=1;" vertex="1" parent="1">
          <mxGeometry x="1100" y="320" width="220" height="140" as="geometry" />
        </mxCell>
        <mxCell id="_ELthS9zB8k-ZV5dLOc0-9" style="edgeStyle=orthogonalEdgeStyle;rounded=0;orthogonalLoop=1;jettySize=auto;html=1;entryX=0.5;entryY=0;entryDx=0;entryDy=0;" edge="1" parent="1" source="_ELthS9zB8k-ZV5dLOc0-5" target="_ELthS9zB8k-ZV5dLOc0-8">
          <mxGeometry relative="1" as="geometry" />
        </mxCell>
        <mxCell id="_ELthS9zB8k-ZV5dLOc0-5" value="&lt;font style=&quot;font-size: 14px;&quot; face=&quot;Times New Roman&quot;&gt;Визначення правил конвертації для вхідних одиниць вимірювання&lt;/font&gt;" style="rounded=1;whiteSpace=wrap;html=1;" vertex="1" parent="1">
          <mxGeometry x="1105" y="520" width="210" height="90" as="geometry" />
        </mxCell>
        <mxCell id="_ELthS9zB8k-ZV5dLOc0-12" style="edgeStyle=orthogonalEdgeStyle;rounded=0;orthogonalLoop=1;jettySize=auto;html=1;" edge="1" parent="1" source="_ELthS9zB8k-ZV5dLOc0-8" target="_ELthS9zB8k-ZV5dLOc0-11">
          <mxGeometry relative="1" as="geometry" />
        </mxCell>
        <mxCell id="_ELthS9zB8k-ZV5dLOc0-8" value="&lt;font style=&quot;font-size: 14px;&quot; face=&quot;Times New Roman&quot;&gt;Обчислення конвертованого значення&lt;/font&gt;" style="rounded=1;whiteSpace=wrap;html=1;" vertex="1" parent="1">
          <mxGeometry x="1105" y="670" width="210" height="90" as="geometry" />
        </mxCell>
        <mxCell id="_ELthS9zB8k-ZV5dLOc0-11" value="&lt;font style=&quot;font-size: 14px;&quot; face=&quot;Times New Roman&quot;&gt;Повернення конвертованого значення&lt;/font&gt;" style="rounded=1;whiteSpace=wrap;html=1;" vertex="1" parent="1">
          <mxGeometry x="1105" y="810" width="210" height="90" as="geometry" />
        </mxCell>
        <mxCell id="_ELthS9zB8k-ZV5dLOc0-22" style="edgeStyle=orthogonalEdgeStyle;rounded=0;orthogonalLoop=1;jettySize=auto;html=1;entryX=0.5;entryY=0;entryDx=0;entryDy=0;" edge="1" parent="1" source="_ELthS9zB8k-ZV5dLOc0-14" target="_ELthS9zB8k-ZV5dLOc0-18">
          <mxGeometry relative="1" as="geometry" />
        </mxCell>
        <mxCell id="_ELthS9zB8k-ZV5dLOc0-14" value="&lt;font face=&quot;Times New Roman&quot;&gt;&lt;span style=&quot;font-size: 36px;&quot;&gt;&lt;b&gt;Main&lt;/b&gt;&lt;/span&gt;&lt;/font&gt;" style="rounded=0;whiteSpace=wrap;html=1;" vertex="1" parent="1">
          <mxGeometry x="1340" y="140" width="210" height="130" as="geometry" />
        </mxCell>
        <mxCell id="_ELthS9zB8k-ZV5dLOc0-17" style="edgeStyle=orthogonalEdgeStyle;rounded=0;orthogonalLoop=1;jettySize=auto;html=1;entryX=0.5;entryY=0;entryDx=0;entryDy=0;" edge="1" parent="1" source="_ELthS9zB8k-ZV5dLOc0-18" target="_ELthS9zB8k-ZV5dLOc0-20">
          <mxGeometry relative="1" as="geometry" />
        </mxCell>
        <mxCell id="_ELthS9zB8k-ZV5dLOc0-18" value="&lt;font face=&quot;Times New Roman&quot;&gt;&lt;span style=&quot;font-size: 14px;&quot;&gt;Виведення меню вибору&lt;/span&gt;&lt;/font&gt;" style="rounded=1;whiteSpace=wrap;html=1;" vertex="1" parent="1">
          <mxGeometry x="1340" y="310" width="210" height="90" as="geometry" />
        </mxCell>
        <mxCell id="_ELthS9zB8k-ZV5dLOc0-19" style="edgeStyle=orthogonalEdgeStyle;rounded=0;orthogonalLoop=1;jettySize=auto;html=1;" edge="1" parent="1" source="_ELthS9zB8k-ZV5dLOc0-20" target="_ELthS9zB8k-ZV5dLOc0-21">
          <mxGeometry relative="1" as="geometry" />
        </mxCell>
        <mxCell id="_ELthS9zB8k-ZV5dLOc0-20" value="&lt;font style=&quot;font-size: 14px;&quot; face=&quot;Times New Roman&quot;&gt;Вибір типу конвертації&lt;/font&gt;" style="rounded=1;whiteSpace=wrap;html=1;" vertex="1" parent="1">
          <mxGeometry x="1340" y="460" width="210" height="90" as="geometry" />
        </mxCell>
        <mxCell id="_ELthS9zB8k-ZV5dLOc0-24" style="edgeStyle=orthogonalEdgeStyle;rounded=0;orthogonalLoop=1;jettySize=auto;html=1;" edge="1" parent="1" source="_ELthS9zB8k-ZV5dLOc0-21" target="_ELthS9zB8k-ZV5dLOc0-23">
          <mxGeometry relative="1" as="geometry" />
        </mxCell>
        <mxCell id="_ELthS9zB8k-ZV5dLOc0-21" value="&lt;font style=&quot;font-size: 14px;&quot; face=&quot;Times New Roman&quot;&gt;Вивід значення та одиниць вимірювання&lt;/font&gt;" style="rounded=1;whiteSpace=wrap;html=1;" vertex="1" parent="1">
          <mxGeometry x="1340" y="600" width="210" height="90" as="geometry" />
        </mxCell>
        <mxCell id="_ELthS9zB8k-ZV5dLOc0-23" value="&lt;font face=&quot;Times New Roman&quot;&gt;&lt;span style=&quot;font-size: 14px;&quot;&gt;Вибір одениць для конвертації&lt;/span&gt;&lt;/font&gt;" style="rounded=1;whiteSpace=wrap;html=1;" vertex="1" parent="1">
          <mxGeometry x="1340" y="730" width="210" height="90" as="geometry" />
        </mxCell>
        <mxCell id="_ELthS9zB8k-ZV5dLOc0-28" style="edgeStyle=orthogonalEdgeStyle;rounded=0;orthogonalLoop=1;jettySize=auto;html=1;entryX=0.5;entryY=0;entryDx=0;entryDy=0;" edge="1" parent="1" source="_ELthS9zB8k-ZV5dLOc0-26" target="_ELthS9zB8k-ZV5dLOc0-27">
          <mxGeometry relative="1" as="geometry" />
        </mxCell>
        <mxCell id="_ELthS9zB8k-ZV5dLOc0-26" value="&lt;font face=&quot;Times New Roman&quot;&gt;&lt;span style=&quot;font-size: 36px;&quot;&gt;&lt;b&gt;Початок&lt;/b&gt;&lt;/span&gt;&lt;/font&gt;" style="rounded=0;whiteSpace=wrap;html=1;" vertex="1" parent="1">
          <mxGeometry x="250" y="120" width="210" height="130" as="geometry" />
        </mxCell>
        <mxCell id="_ELthS9zB8k-ZV5dLOc0-30" style="edgeStyle=orthogonalEdgeStyle;rounded=0;orthogonalLoop=1;jettySize=auto;html=1;entryX=0.5;entryY=0;entryDx=0;entryDy=0;" edge="1" parent="1" source="_ELthS9zB8k-ZV5dLOc0-27" target="_ELthS9zB8k-ZV5dLOc0-29">
          <mxGeometry relative="1" as="geometry" />
        </mxCell>
        <mxCell id="_ELthS9zB8k-ZV5dLOc0-27" value="&lt;font style=&quot;font-size: 14px;&quot; face=&quot;Times New Roman&quot;&gt;Меню для вибру типу конвертації(Довжина, вага, об&#39;єм&lt;/font&gt;&lt;font style=&quot;font-size: 14px;&quot; face=&quot;Times New Roman&quot;&gt;)&lt;/font&gt;" style="ellipse;whiteSpace=wrap;html=1;" vertex="1" parent="1">
          <mxGeometry x="232.5" y="290" width="245" height="140" as="geometry" />
        </mxCell>
        <mxCell id="_ELthS9zB8k-ZV5dLOc0-33" style="edgeStyle=orthogonalEdgeStyle;rounded=0;orthogonalLoop=1;jettySize=auto;html=1;entryX=0.5;entryY=0;entryDx=0;entryDy=0;" edge="1" parent="1" source="_ELthS9zB8k-ZV5dLOc0-29" target="_ELthS9zB8k-ZV5dLOc0-32">
          <mxGeometry relative="1" as="geometry" />
        </mxCell>
        <mxCell id="_ELthS9zB8k-ZV5dLOc0-29" value="&lt;font face=&quot;Times New Roman&quot;&gt;Виведення відповіді на основі отриманої інформації&lt;font style=&quot;font-size: 14px;&quot;&gt;(Довжина, вага, об&#39;єм&lt;/font&gt;&lt;font style=&quot;font-size: 14px;&quot;&gt;)&lt;/font&gt;&lt;/font&gt;" style="rounded=1;whiteSpace=wrap;html=1;" vertex="1" parent="1">
          <mxGeometry x="240" y="470" width="230" height="140" as="geometry" />
        </mxCell>
        <mxCell id="_ELthS9zB8k-ZV5dLOc0-35" style="edgeStyle=orthogonalEdgeStyle;rounded=0;orthogonalLoop=1;jettySize=auto;html=1;" edge="1" parent="1" source="_ELthS9zB8k-ZV5dLOc0-32" target="_ELthS9zB8k-ZV5dLOc0-34">
          <mxGeometry relative="1" as="geometry" />
        </mxCell>
        <mxCell id="_ELthS9zB8k-ZV5dLOc0-32" value="&lt;font face=&quot;Times New Roman&quot;&gt;Викливання відпаовідного методу конвертації&lt;/font&gt;" style="rounded=1;whiteSpace=wrap;html=1;" vertex="1" parent="1">
          <mxGeometry x="253.75" y="650" width="202.5" height="110" as="geometry" />
        </mxCell>
        <mxCell id="_ELthS9zB8k-ZV5dLOc0-34" value="&lt;font face=&quot;Times New Roman&quot; style=&quot;font-size: 24px;&quot;&gt;&lt;b&gt;Виведення результату конвертації&lt;/b&gt;&lt;/font&gt;" style="rounded=1;whiteSpace=wrap;html=1;" vertex="1" parent="1">
          <mxGeometry x="213.25" y="800" width="283.5" height="120" as="geometry" />
        </mxCell>
        <mxCell id="_ELthS9zB8k-ZV5dLOc0-37" value="" style="ellipse;whiteSpace=wrap;html=1;" vertex="1" parent="1">
          <mxGeometry x="1060" y="60" width="550" height="880" as="geometry" />
        </mxCell>
      </root>
    </mxGraphModel>
  </diagram>
</mxfile>
